<?xml version="1.0" standalone="no"?>
<!DOCTYPE svg PUBLIC "-//W3C//DTD SVG 20010904//EN"
 "http://www.w3.org/TR/2001/REC-SVG-20010904/DTD/svg10.dtd">
<svg version="1.0" xmlns="http://www.w3.org/2000/svg"
 width="1096.000000pt" height="1096.000000pt" viewBox="0 0 1096.000000 1096.000000"
 preserveAspectRatio="xMidYMid meet">
<metadata>
Created by potrace 1.11, written by Peter Selinger 2001-2013
</metadata>
<g transform="translate(0.000000,1096.000000) scale(0.100000,-0.100000)"
fill="#000000" stroke="none">
<path d="M2720 10173 c-13 -27 -27 -50 -30 -53 -3 -3 -10 -14 -16 -25 -25 -46
-67 -120 -168 -294 -58 -102 -106 -188 -106 -193 0 -4 -4 -8 -10 -8 -5 0 -10
-4 -10 -9 0 -6 -25 -52 -55 -104 -30 -51 -55 -99 -55 -105 0 -7 -4 -12 -8 -12
-5 0 -18 -19 -31 -42 -12 -24 -30 -56 -40 -73 -10 -16 -29 -50 -43 -75 -14
-25 -50 -85 -79 -135 -29 -49 -62 -108 -73 -130 -11 -22 -23 -42 -26 -45 -4
-3 -33 -52 -65 -110 -32 -58 -65 -113 -74 -124 -9 -10 -14 -19 -12 -20 3 0 -8
-20 -22 -43 -15 -24 -27 -45 -27 -48 0 -2 -18 -34 -40 -70 -22 -36 -40 -67
-40 -70 0 -4 -40 -71 -78 -130 -6 -11 -15 -27 -19 -35 -4 -8 -26 -48 -50 -88
-24 -41 -43 -78 -43 -83 0 -5 -4 -9 -10 -9 -5 0 -10 -6 -10 -14 0 -7 -7 -19
-15 -26 -9 -7 -13 -15 -11 -18 3 -3 -3 -17 -13 -31 -10 -14 -79 -132 -153
-261 -75 -129 -170 -296 -213 -370 -44 -74 -84 -145 -89 -157 -6 -13 -14 -23
-18 -23 -5 0 -8 -6 -8 -14 0 -8 -7 -22 -16 -30 -8 -9 -13 -16 -9 -16 3 0 -3
-13 -14 -29 -12 -16 -21 -34 -21 -40 0 -6 -4 -11 -8 -11 -4 0 -15 -15 -23 -32
-28 -57 -153 -273 -161 -276 -5 -2 -8 -8 -8 -14 0 -5 -26 -53 -57 -106 -32
-54 -60 -101 -62 -107 -2 -5 -20 -37 -40 -70 -20 -33 -41 -69 -48 -80 -7 -11
-17 -29 -22 -40 -6 -11 -24 -42 -40 -70 -16 -27 -42 -72 -56 -100 -15 -27 -34
-58 -43 -67 -8 -10 -11 -18 -7 -18 4 0 1 -8 -7 -17 -8 -10 -35 -54 -60 -98
-128 -225 -229 -399 -240 -412 -7 -9 -2 -27 18 -60 16 -27 29 -50 29 -53 0 -3
8 -16 16 -30 40 -64 89 -152 89 -161 0 -5 3 -9 8 -9 4 0 18 -23 31 -50 14 -28
29 -50 35 -50 5 0 7 -3 3 -6 -3 -4 9 -29 27 -58 18 -28 35 -58 39 -66 4 -8 17
-32 30 -52 12 -21 34 -60 49 -86 15 -27 38 -66 52 -87 14 -21 26 -41 26 -46 0
-4 22 -44 50 -88 27 -44 50 -85 50 -91 0 -5 5 -10 11 -10 5 0 7 -4 4 -10 -3
-5 -1 -10 4 -10 6 0 11 -5 11 -11 0 -11 55 -107 92 -161 10 -15 18 -34 18 -42
0 -8 4 -16 8 -18 5 -1 32 -46 62 -98 30 -52 58 -98 64 -102 6 -4 7 -8 3 -8 -4
0 8 -25 28 -55 19 -31 35 -58 35 -61 0 -3 13 -25 28 -48 16 -23 35 -56 43 -74
7 -18 17 -32 21 -32 5 0 8 -5 8 -11 0 -6 23 -49 51 -97 47 -78 82 -139 113
-197 6 -11 16 -27 22 -35 12 -16 69 -118 88 -157 6 -13 14 -23 19 -23 4 0 7
-6 7 -12 0 -7 18 -41 39 -74 21 -34 42 -71 46 -83 3 -11 11 -21 16 -21 5 0 9
-5 9 -11 0 -7 20 -45 45 -87 25 -41 45 -78 45 -83 0 -5 3 -9 8 -9 4 0 14 -15
21 -32 8 -18 25 -50 39 -70 28 -43 53 -88 79 -140 10 -21 21 -38 25 -38 5 0 8
-4 8 -9 0 -8 69 -133 100 -181 5 -8 19 -33 31 -55 12 -22 27 -43 33 -47 6 -4
7 -8 2 -8 -5 0 -2 -8 6 -17 9 -10 17 -23 19 -28 6 -16 152 -269 159 -275 3 -3
11 -16 17 -30 14 -28 40 -74 96 -168 20 -35 37 -67 37 -72 0 -4 3 -10 8 -12 4
-2 18 -24 32 -50 13 -27 28 -48 32 -48 5 0 8 -9 8 -20 0 -11 4 -20 9 -20 5 0
14 -15 22 -32 7 -18 16 -35 19 -38 4 -3 20 -30 37 -60 34 -63 56 -100 106
-185 20 -33 43 -76 52 -95 9 -19 19 -37 23 -40 4 -3 19 -26 32 -52 14 -27 29
-48 33 -48 5 0 5 -4 2 -10 -3 -5 -2 -10 2 -10 5 0 14 -12 20 -27 12 -29 54
-104 63 -113 3 -3 12 -18 20 -34 8 -16 19 -38 25 -48 9 -17 106 -18 2751 -18
l2741 0 12 27 c7 16 12 30 11 32 -1 2 2 7 8 10 11 8 122 199 122 212 0 5 4 9
8 9 4 0 15 15 23 33 9 17 55 99 102 181 48 82 87 153 87 157 0 4 3 9 8 11 7 3
27 38 60 103 9 17 18 32 21 35 3 3 11 14 17 25 39 72 92 164 134 235 18 30 46
80 63 110 16 30 35 62 41 70 7 8 18 29 26 45 8 17 18 32 21 35 4 3 18 28 33
55 14 28 39 73 56 100 28 47 78 136 109 194 8 14 17 28 21 31 3 3 17 26 29 53
13 26 27 47 32 47 5 0 8 3 7 7 -2 8 2 16 42 83 11 19 26 47 33 63 6 15 15 27
19 27 4 0 8 5 8 10 0 6 18 40 40 76 22 36 40 70 40 75 0 5 5 9 10 9 6 0 10 9
10 19 0 11 4 21 8 23 5 2 15 15 23 30 8 15 50 89 94 165 44 76 85 146 90 156
6 9 43 74 83 143 39 69 72 129 72 135 0 5 3 9 8 9 4 0 18 21 32 47 13 27 44
80 67 119 24 39 43 75 43 78 0 4 5 12 10 19 16 18 130 219 130 229 0 4 3 8 8
8 4 0 13 15 21 33 8 17 17 34 21 37 4 3 13 19 22 35 25 50 53 100 58 105 7 7
26 38 53 90 46 87 111 195 121 202 6 4 8 8 4 8 -4 0 8 25 27 55 19 30 35 58
35 64 0 5 6 16 13 23 7 7 29 42 48 78 18 36 37 67 42 68 4 2 7 10 7 18 0 8 5
14 12 14 6 0 8 3 5 6 -4 4 2 19 13 34 11 16 20 33 20 39 0 6 5 11 10 11 6 0
10 4 10 9 0 5 20 44 45 85 25 42 45 81 45 86 0 6 5 10 10 10 6 0 10 4 10 9 0
9 119 221 130 231 3 3 11 15 18 28 11 19 9 29 -14 70 -15 26 -38 67 -52 92
-13 25 -28 50 -32 55 -4 6 -25 42 -45 80 -21 39 -41 72 -45 75 -4 3 -9 12 -13
20 -3 8 -20 38 -37 65 -16 28 -35 62 -41 78 -6 15 -15 27 -21 27 -5 0 -7 4 -4
8 3 5 -4 19 -15 30 -11 12 -18 22 -15 22 5 0 -168 299 -184 318 -6 6 -8 12 -5
12 4 0 -2 12 -13 28 -10 15 -45 73 -77 130 -31 56 -61 105 -66 108 -5 3 -7 10
-4 15 4 5 1 9 -4 9 -6 0 -11 4 -11 9 0 12 -83 155 -92 159 -5 2 -8 8 -8 14 0
5 -9 23 -21 39 -11 16 -17 29 -12 29 4 0 4 4 -2 8 -10 7 -27 34 -56 90 -10 18
-22 38 -27 45 -9 11 -49 82 -88 157 -11 19 -21 37 -24 40 -3 3 -11 16 -18 29
-8 13 -22 39 -32 57 -11 18 -29 50 -42 71 -13 21 -35 59 -48 86 -14 26 -28 47
-32 47 -5 0 -8 5 -8 11 0 6 -25 53 -55 105 -31 52 -70 120 -87 152 -17 31 -34
59 -37 62 -4 3 -12 16 -19 30 -7 14 -26 48 -42 75 -16 28 -33 57 -37 65 -4 8
-21 38 -38 65 -18 28 -38 65 -46 83 -8 17 -17 32 -21 32 -5 0 -8 4 -8 9 0 5
-19 42 -43 83 -24 40 -55 93 -69 118 -14 25 -57 99 -95 165 -38 66 -76 131
-84 145 -8 14 -17 27 -20 30 -3 3 -11 20 -19 38 -7 19 -18 39 -24 45 -13 14
-50 77 -74 127 -9 19 -19 37 -22 40 -10 10 -90 153 -90 161 0 5 -4 9 -10 9 -5
0 -10 4 -10 9 0 5 -27 54 -59 109 -32 55 -72 124 -89 154 -16 29 -52 93 -81
141 -28 49 -51 93 -51 98 0 5 -3 9 -7 9 -5 0 -13 10 -19 23 -23 49 -59 112
-66 115 -5 2 -8 10 -8 18 0 8 -3 14 -8 14 -4 0 -13 15 -21 33 -8 17 -24 48
-36 67 -12 19 -36 60 -52 90 -17 30 -39 70 -49 87 l-19 33 -2740 0 -2740 0
-25 -47z"/>
</g>
</svg>
